<svg width="227" height="60" viewBox="0 0 227 60" fill="none" xmlns="http://www.w3.org/2000/svg">
<path d="M83.8465 33.5802C83.11 34.3167 82.2556 34.8986 81.2834 35.3258C80.3111 35.7382 79.2652 35.9445 78.1457 35.9445C77.0408 35.9445 75.995 35.7382 75.008 35.3258C74.0357 34.8986 73.1813 34.3241 72.4448 33.6023C71.723 32.8657 71.1485 32.0113 70.7213 31.0391C70.3088 30.0521 70.1026 29.0062 70.1026 27.9014C70.1026 26.7966 70.3088 25.758 70.7213 24.7858C71.1485 23.7988 71.723 22.9444 72.4448 22.2226C73.1813 21.4861 74.0357 20.9116 75.008 20.4991C75.995 20.0719 77.0408 19.8583 78.1457 19.8583C79.2652 19.8583 80.3111 20.0719 81.2834 20.4991C82.2556 20.9116 83.11 21.4861 83.8465 22.2226L81.9683 24.1008C81.4528 23.5852 80.8709 23.1948 80.2227 22.9297C79.5746 22.6498 78.8822 22.5099 78.1457 22.5099C77.4239 22.5099 76.7389 22.6498 76.0907 22.9297C75.4425 23.1948 74.8607 23.5852 74.3451 24.1008C73.8295 24.6164 73.4318 25.1983 73.1519 25.8464C72.8867 26.4946 72.7541 27.1796 72.7541 27.9014C72.7541 28.6232 72.8867 29.3156 73.1519 29.9784C73.4318 30.6266 73.8295 31.2085 74.3451 31.7241C74.8607 32.2396 75.4425 32.63 76.0907 32.8952C76.7389 33.1603 77.4239 33.2929 78.1457 33.2929C78.8822 33.2929 79.5746 33.1603 80.2227 32.8952C80.8709 32.63 81.4528 32.2396 81.9683 31.7241L83.8465 33.5802ZM96.3193 24.609L91.1929 35.6572L90.5079 37.1598C90.0955 38.0584 89.4768 38.7728 88.6518 39.3031C87.8269 39.8334 86.9136 40.0986 85.9119 40.0986H84.7408L85.4036 37.447H86.0444C86.4716 37.447 86.8694 37.3292 87.2377 37.0935C87.6059 36.8578 87.8784 36.5411 88.0552 36.1433L88.2762 35.6572L83.1498 24.609H86.0665L89.7345 32.5195L93.4026 24.609H96.3193ZM103.267 24.3218C104.078 24.3218 104.822 24.4764 105.499 24.7858C106.191 25.0804 106.788 25.4929 107.289 26.0232C107.79 26.5535 108.18 27.1722 108.46 27.8793C108.74 28.5864 108.88 29.345 108.88 30.1552C108.88 30.9507 108.74 31.702 108.46 32.4091C108.18 33.1161 107.79 33.7348 107.289 34.2652C106.788 34.7955 106.191 35.2153 105.499 35.5246C104.822 35.8193 104.078 35.9666 103.267 35.9666C102.398 35.9666 101.61 35.7972 100.903 35.4584L101.853 33.094C102.207 33.2414 102.605 33.315 103.046 33.315C103.945 33.315 104.696 33.0057 105.3 32.387C105.919 31.7683 106.228 31.0243 106.228 30.1552C106.228 29.2714 105.919 28.5201 105.3 27.9014C104.682 27.2827 103.93 26.9733 103.046 26.9733C102.192 26.9733 101.441 27.2827 100.793 27.9014C100.174 28.5201 99.8645 29.2714 99.8645 30.1552V34.7955V35.6793H97.213V20.1897H99.8645V25.4929C100.292 25.1541 100.785 24.8742 101.345 24.6532C101.905 24.4322 102.546 24.3218 103.267 24.3218ZM118.492 31.4589H112.703C112.85 31.7977 113.064 32.0997 113.344 32.3649C113.653 32.6742 113.999 32.9099 114.382 33.0719C114.765 33.2193 115.17 33.2929 115.597 33.2929C116.201 33.2929 116.739 33.153 117.21 32.8731L119.972 33.9779C119.442 34.5966 118.801 35.0827 118.05 35.4363C117.299 35.7751 116.481 35.9445 115.597 35.9445C114.787 35.9445 114.029 35.7972 113.321 35.5026C112.614 35.1932 111.996 34.7734 111.465 34.2431C110.935 33.7127 110.515 33.094 110.206 32.387C109.911 31.6799 109.764 30.9286 109.764 30.1331C109.764 29.3229 109.911 28.5643 110.206 27.8572C110.515 27.1501 110.935 26.5314 111.465 26.0011C111.996 25.4708 112.614 25.0583 113.321 24.7637C114.029 24.4543 114.787 24.2997 115.597 24.2997C116.408 24.2997 117.166 24.4543 117.873 24.7637C118.58 25.0583 119.199 25.4708 119.729 26.0011C120.26 26.5314 120.672 27.1501 120.967 27.8572C121.276 28.5643 121.431 29.3229 121.431 30.1331C121.431 30.6045 121.379 31.0464 121.276 31.4589H118.492ZM115.597 26.9512C114.743 26.9512 113.992 27.2606 113.344 27.8793C113.064 28.1592 112.85 28.4685 112.703 28.8073H118.492C118.345 28.4685 118.131 28.1592 117.851 27.8793C117.232 27.2606 116.481 26.9512 115.597 26.9512ZM125.306 25.4487C125.718 25.1099 126.182 24.83 126.698 24.609C127.228 24.3881 127.825 24.2776 128.488 24.2776V26.9291C127.604 26.9291 126.852 27.2385 126.234 27.8572C125.615 28.5054 125.306 29.2566 125.306 30.111V35.6572H122.654V30.111V24.5869H125.306V25.4487ZM140.604 31.2379C140.604 31.9598 140.486 32.6153 140.25 33.2045C140.015 33.779 139.676 34.2725 139.234 34.685C138.807 35.0827 138.284 35.3921 137.665 35.613C137.046 35.834 136.354 35.9445 135.588 35.9445C134.365 35.9445 133.275 35.753 132.318 35.37C131.36 34.9722 130.572 34.5229 129.953 34.0221L131.787 32.1881C132.273 32.63 132.818 32.9688 133.422 33.2045C133.791 33.3518 134.137 33.4476 134.461 33.4918C134.785 33.536 135.05 33.5581 135.256 33.5581C135.639 33.5581 135.986 33.5139 136.295 33.4255C136.619 33.3224 136.899 33.1898 137.135 33.0278C137.635 32.6595 137.886 32.1734 137.886 31.5694C137.886 31.2011 137.753 30.8697 137.488 30.5751C137.282 30.3394 137.017 30.1479 136.693 30.0005C136.428 29.8532 136.148 29.7354 135.853 29.647C135.558 29.5586 135.293 29.4776 135.058 29.4039C134.984 29.3745 134.918 29.3597 134.859 29.3597C134.8 29.345 134.748 29.3229 134.704 29.2935C134.675 29.2935 134.63 29.2787 134.571 29.2493C134.262 29.1609 133.813 29.0062 133.224 28.7852C132.649 28.5643 132.075 28.2623 131.5 27.8793C130.16 26.9807 129.489 25.8759 129.489 24.5648C129.489 23.6957 129.637 22.9665 129.931 22.3773C130.241 21.7733 130.638 21.2872 131.124 20.9189C131.611 20.5359 132.148 20.2634 132.737 20.1013C133.341 19.9393 133.931 19.8583 134.505 19.8583C135.566 19.8583 136.457 19.9835 137.179 20.2339C137.901 20.4844 138.475 20.7348 138.902 20.9852C139.123 21.1178 139.307 21.2504 139.455 21.3829C139.617 21.5008 139.757 21.6113 139.875 21.7144L137.996 23.6147C137.599 23.2169 137.194 22.915 136.781 22.7087C136.162 22.4141 135.514 22.2668 134.837 22.2668C134.542 22.2668 134.247 22.3036 133.953 22.3773C133.658 22.4509 133.4 22.5467 133.179 22.6645C132.531 23.0623 132.207 23.5852 132.207 24.2334C132.207 24.6311 132.34 24.9699 132.605 25.2498C132.796 25.4708 133.062 25.6696 133.4 25.8464C133.68 25.9937 133.975 26.1116 134.284 26.2C134.594 26.2883 134.881 26.3694 135.146 26.443L135.411 26.5093C135.485 26.5388 135.625 26.583 135.831 26.6419C136.037 26.7008 136.28 26.7892 136.56 26.907C136.84 27.0249 137.142 27.1648 137.466 27.3269C137.805 27.4889 138.136 27.6804 138.46 27.9014C139.889 28.8442 140.604 29.9564 140.604 31.2379ZM151.558 34.2431C151.027 34.7734 150.409 35.1932 149.702 35.5026C148.995 35.7972 148.236 35.9445 147.426 35.9445C146.615 35.9445 145.857 35.7972 145.15 35.5026C144.443 35.1932 143.824 34.7734 143.294 34.2431C142.763 33.7127 142.344 33.094 142.034 32.387C141.74 31.6799 141.592 30.9286 141.592 30.1331C141.592 29.3229 141.74 28.5643 142.034 27.8572C142.344 27.1501 142.763 26.5314 143.294 26.0011C143.824 25.4708 144.443 25.0583 145.15 24.7637C145.857 24.4543 146.615 24.2997 147.426 24.2997C148.236 24.2997 148.995 24.4543 149.702 24.7637C150.409 25.0583 151.027 25.4708 151.558 26.0011L149.68 27.8793C149.061 27.2606 148.31 26.9512 147.426 26.9512C146.571 26.9512 145.82 27.2606 145.172 27.8793C144.553 28.498 144.244 29.2493 144.244 30.1331C144.244 31.0022 144.553 31.7462 145.172 32.3649C145.481 32.6742 145.827 32.9099 146.21 33.0719C146.593 33.2193 146.998 33.2929 147.426 33.2929C148.324 33.2929 149.076 32.9836 149.68 32.3649L151.558 34.2431ZM154.976 25.4487C155.389 25.1099 155.853 24.83 156.368 24.609C156.898 24.3881 157.495 24.2776 158.158 24.2776V26.9291C157.274 26.9291 156.523 27.2385 155.904 27.8572C155.285 28.5054 154.976 29.2566 154.976 30.111V35.6572H152.325V30.111V24.5869H154.976V25.4487ZM167.087 31.4589H161.298C161.445 31.7977 161.658 32.0997 161.938 32.3649C162.248 32.6742 162.594 32.9099 162.977 33.0719C163.36 33.2193 163.765 33.2929 164.192 33.2929C164.796 33.2929 165.334 33.153 165.805 32.8731L168.567 33.9779C168.037 34.5966 167.396 35.0827 166.645 35.4363C165.894 35.7751 165.076 35.9445 164.192 35.9445C163.382 35.9445 162.623 35.7972 161.916 35.5026C161.209 35.1932 160.59 34.7734 160.06 34.2431C159.53 33.7127 159.11 33.094 158.801 32.387C158.506 31.6799 158.359 30.9286 158.359 30.1331C158.359 29.3229 158.506 28.5643 158.801 27.8572C159.11 27.1501 159.53 26.5314 160.06 26.0011C160.59 25.4708 161.209 25.0583 161.916 24.7637C162.623 24.4543 163.382 24.2997 164.192 24.2997C165.002 24.2997 165.761 24.4543 166.468 24.7637C167.175 25.0583 167.794 25.4708 168.324 26.0011C168.855 26.5314 169.267 27.1501 169.562 27.8572C169.871 28.5643 170.026 29.3229 170.026 30.1331C170.026 30.6045 169.974 31.0464 169.871 31.4589H167.087ZM164.192 26.9512C163.338 26.9512 162.587 27.2606 161.938 27.8793C161.658 28.1592 161.445 28.4685 161.298 28.8073H167.087C166.94 28.4685 166.726 28.1592 166.446 27.8793C165.827 27.2606 165.076 26.9512 164.192 26.9512ZM179.646 31.4589H173.856C174.004 31.7977 174.217 32.0997 174.497 32.3649C174.806 32.6742 175.153 32.9099 175.536 33.0719C175.919 33.2193 176.324 33.2929 176.751 33.2929C177.355 33.2929 177.893 33.153 178.364 32.8731L181.126 33.9779C180.596 34.5966 179.955 35.0827 179.204 35.4363C178.452 35.7751 177.635 35.9445 176.751 35.9445C175.941 35.9445 175.182 35.7972 174.475 35.5026C173.768 35.1932 173.149 34.7734 172.619 34.2431C172.089 33.7127 171.669 33.094 171.359 32.387C171.065 31.6799 170.917 30.9286 170.917 30.1331C170.917 29.3229 171.065 28.5643 171.359 27.8572C171.669 27.1501 172.089 26.5314 172.619 26.0011C173.149 25.4708 173.768 25.0583 174.475 24.7637C175.182 24.4543 175.941 24.2997 176.751 24.2997C177.561 24.2997 178.32 24.4543 179.027 24.7637C179.734 25.0583 180.353 25.4708 180.883 26.0011C181.413 26.5314 181.826 27.1501 182.12 27.8572C182.43 28.5643 182.584 29.3229 182.584 30.1331C182.584 30.6045 182.533 31.0464 182.43 31.4589H179.646ZM176.751 26.9512C175.897 26.9512 175.145 27.2606 174.497 27.8793C174.217 28.1592 174.004 28.4685 173.856 28.8073H179.646C179.498 28.4685 179.285 28.1592 179.005 27.8793C178.386 27.2606 177.635 26.9512 176.751 26.9512ZM189.376 24.2997C190.098 24.2997 190.753 24.4396 191.342 24.7195C191.932 24.9847 192.433 25.3603 192.845 25.8464C193.272 26.3178 193.596 26.8702 193.817 27.5036C194.053 28.1371 194.171 28.8147 194.171 29.5365V35.6572H191.519V29.5365C191.519 28.8 191.261 28.1886 190.746 27.7025C190.245 27.2017 189.641 26.9512 188.934 26.9512C188.212 26.9512 187.601 27.2017 187.1 27.7025C186.599 28.2034 186.349 28.8147 186.349 29.5365V35.6572H183.697V24.609H186.349V25.4487C186.746 25.1099 187.196 24.8373 187.697 24.6311C188.197 24.4102 188.757 24.2997 189.376 24.2997ZM201.27 20.1897C202.036 20.1897 202.758 20.337 203.436 20.6317C204.113 20.9263 204.703 21.324 205.204 21.8249C205.704 22.3257 206.102 22.915 206.397 23.5926C206.691 24.2555 206.839 24.9699 206.839 25.7359C206.839 26.5019 206.691 27.2238 206.397 27.9014C206.102 28.579 205.704 29.1682 205.204 29.6691C204.703 30.1699 204.113 30.5677 203.436 30.8623C202.758 31.1569 202.036 31.3042 201.27 31.3042H199.061L200.143 28.6527H201.27C202.066 28.6527 202.751 28.3654 203.325 27.7909C203.9 27.2164 204.187 26.5314 204.187 25.7359C204.187 24.9257 203.9 24.2481 203.325 23.7031C202.751 23.1286 202.066 22.8413 201.27 22.8413H198.155V35.6572H195.503V20.1897H201.27ZM210.821 25.4487C211.234 25.1099 211.698 24.83 212.213 24.609C212.744 24.3881 213.34 24.2776 214.003 24.2776V26.9291C213.119 26.9291 212.368 27.2385 211.749 27.8572C211.131 28.5054 210.821 29.2566 210.821 30.111V35.6572H208.17V30.111V24.5869H210.821V25.4487ZM219.865 26.9512C218.981 26.9512 218.23 27.2606 217.611 27.8793C216.992 28.498 216.683 29.2493 216.683 30.1331C216.683 31.0022 216.992 31.7462 217.611 32.3649C217.906 32.6742 218.244 32.9099 218.627 33.0719C219.025 33.2193 219.438 33.2929 219.865 33.2929C220.292 33.2929 220.697 33.2193 221.08 33.0719C221.463 32.9099 221.809 32.6742 222.119 32.3649C222.737 31.7462 223.047 31.0022 223.047 30.1331C223.047 29.2493 222.737 28.498 222.119 27.8793C221.47 27.2606 220.719 26.9512 219.865 26.9512ZM219.865 24.2997C220.675 24.2997 221.434 24.4543 222.141 24.7637C222.848 25.0583 223.467 25.4708 223.997 26.0011C224.527 26.5314 224.94 27.1501 225.234 27.8572C225.544 28.5643 225.698 29.3229 225.698 30.1331C225.698 30.9286 225.544 31.6799 225.234 32.387C224.94 33.094 224.527 33.7127 223.997 34.2431C223.467 34.7734 222.848 35.1932 222.141 35.5026C221.434 35.7972 220.675 35.9445 219.865 35.9445C219.055 35.9445 218.296 35.7972 217.589 35.5026C216.882 35.1932 216.263 34.7734 215.733 34.2431C215.202 33.7127 214.783 33.094 214.473 32.387C214.179 31.6799 214.031 30.9286 214.031 30.1331C214.031 29.3229 214.179 28.5643 214.473 27.8572C214.783 27.1501 215.202 26.5314 215.733 26.0011C216.263 25.4708 216.882 25.0583 217.589 24.7637C218.296 24.4543 219.055 24.2997 219.865 24.2997Z" fill="white"/>
<path d="M27.8755 23.7961V0L0 15.4675V39.9435L27.8755 23.7961Z" fill="#08E890"/>
<path d="M18.1873 29.4055L0.000244141 39.9438L18.1873 50.8221V29.4055Z" fill="#C4ECE0"/>
<path d="M24.646 36.2037V59.9998L52.5215 44.5324V20.0563L24.646 36.2037Z" fill="#08E890"/>
<path d="M34.3344 30.5948L52.5215 20.0566L34.3344 9.17833V30.5948Z" fill="#C4ECE0"/>
</svg>
